<svg width="1436" height="736" viewBox="0 0 1436 736" fill="none" xmlns="http://www.w3.org/2000/svg">
<rect width="1436" height="733" transform="translate(0 3)" fill="white"/>
<path d="M991 736H0.000341827C0.000341827 736 -0.000253054 416.619 0.000126722 371.46C0.000246798 357.181 104.277 340.611 179.201 371.459C254.126 402.308 320.767 490.524 453.5 542.631C586.232 594.739 593.44 542.631 722.999 542.631C852.559 542.631 891.499 675.707 891.499 675.707L991 736Z" fill="#9B97B2"/>
<path d="M336.819 69.0373C229.136 17.9684 42 3 42 3H1436V322C1436 322 1321 317 1251.5 292C1182 267 1120.39 191.077 999.5 172C878.61 152.923 724.04 199.207 625.5 186C526.96 172.793 444.502 120.106 336.819 69.0373Z" fill="#9B97B2"/>
<path d="M0.00012207 736V585.171C0.00012207 585.171 95.0604 541.568 296.991 585.171C498.921 628.773 640.033 517.016 757.531 541.568C812.038 552.958 876.973 613.968 951.195 647.822C1025.42 681.677 1131.18 698.839 1172.02 702.013C1248.18 707.934 1309 736 1309 736L0.00012207 736Z" fill="#E28F6D"/>
<path d="M1287 235.5C1136.5 83.2545 859.042 152.778 622.5 130.745C501.622 119.486 443.285 63.9979 339.521 39.105C240.234 15.286 62.5003 9.49997 51.0003 2.99997C39.5003 -3.50003 1436 2.99997 1436 2.99997V119C1356.21 86.6039 1437.5 387.745 1287 235.5Z" fill="#E28F6D"/>
<path d="M635 656.919C743.563 679.575 818.927 716.191 867 736H439.186L0 736V565.619C0 565.619 67.9996 516.214 161.5 540.917C255 565.619 244.314 586.659 361 629.413C477.686 672.166 526.437 634.263 635 656.919Z" fill="#38686A"/>
<path d="M824.486 92.9475C653.449 64.7387 588.159 32.7103 539 0L1436 3V322C1436 322 1353.49 315.152 1279.03 271.274C1233.32 244.337 1202.85 183.941 1120.53 133.215C1038.21 82.4885 995.523 121.156 824.486 92.9475Z" fill="#38686A"/>
</svg>
