<?xml version="1.0" standalone="no"?>
<!DOCTYPE svg PUBLIC "-//W3C//DTD SVG 20010904//EN"
 "http://www.w3.org/TR/2001/REC-SVG-20010904/DTD/svg10.dtd">
<svg version="1.0" xmlns="http://www.w3.org/2000/svg"
 width="272.000000pt" height="272.000000pt" viewBox="0 0 272.000000 272.000000"
 preserveAspectRatio="xMidYMid meet">
<metadata>
Created by potrace 1.14, written by Peter Selinger 2001-2017
</metadata>
<g transform="translate(0.000000,272.000000) scale(0.100000,-0.100000)"
fill="#000000" stroke="none">
<path d="M1749 2467 c-9 -12 -43 -78 -77 -147 -40 -82 -88 -160 -139 -227
-256 -333 -262 -342 -285 -416 -31 -99 -30 -190 5 -352 16 -71 31 -175 34
-230 l5 -100 -39 -52 c-42 -56 -135 -136 -210 -179 -47 -28 -168 -53 -255 -54
-27 0 -90 7 -140 16 -110 19 -212 14 -289 -15 -63 -24 -94 -52 -118 -106 -22
-51 -84 -102 -174 -145 -45 -23 -67 -39 -67 -51 0 -10 4 -20 10 -24 12 -7 140
10 206 29 37 10 63 12 90 5 37 -8 152 -1 334 21 71 8 159 -1 185 -20 10 -7 72
-24 125 -34 14 -2 65 -16 115 -30 66 -19 113 -26 178 -26 48 0 107 -4 130 -10
23 -5 74 -17 112 -26 39 -9 93 -20 120 -24 28 -5 86 -16 130 -24 134 -26 220
-21 338 18 56 19 123 43 148 54 36 16 60 19 106 15 69 -6 120 9 236 70 101 54
157 101 157 132 0 21 -8 27 -57 40 -91 25 -128 44 -168 86 -74 78 -150 119
-265 142 -61 13 -65 15 -72 48 -19 79 -42 138 -105 267 -87 183 -96 234 -64
396 21 103 23 135 18 274 -3 86 -6 158 -6 160 -1 1 -10 2 -21 2 -19 0 -20 7
-20 99 0 72 -4 100 -13 104 -7 3 -19 24 -26 48 -7 24 -17 58 -22 75 -5 17 -9
51 -9 76 0 79 -12 138 -27 138 -8 0 -27 -28 -43 -62 l-30 -63 0 63 c0 67 -12
79 -41 39z"/>
</g>
</svg>
